<?xml version="1.0" encoding="UTF-8" standalone="no"?>
<svg
   xmlns:dc="http://purl.org/dc/elements/1.1/"
   xmlns:cc="http://creativecommons.org/ns#"
   xmlns:rdf="http://www.w3.org/1999/02/22-rdf-syntax-ns#"
   xmlns:svg="http://www.w3.org/2000/svg"
   xmlns="http://www.w3.org/2000/svg"
   xmlns:sodipodi="http://sodipodi.sourceforge.net/DTD/sodipodi-0.dtd"
   xmlns:inkscape="http://www.inkscape.org/namespaces/inkscape"
   width="225pt"
   height="225pt"
   viewBox="0 0 225 225"
   version="1.2"
   id="svg178"
   sodipodi:docname="Goteborgs_universitet_seal.svg"
   inkscape:version="0.92.4 (5da689c313, 2019-01-14)">
  <metadata
     id="metadata182">
    <rdf:RDF>
      <cc:Work
         rdf:about="">
        <dc:format>image/svg+xml</dc:format>
        <dc:type
           rdf:resource="http://purl.org/dc/dcmitype/StillImage" />
        <dc:title />
      </cc:Work>
    </rdf:RDF>
  </metadata>
  <sodipodi:namedview
     pagecolor="#ffffff"
     bordercolor="#666666"
     borderopacity="1"
     objecttolerance="10"
     gridtolerance="10"
     guidetolerance="10"
     inkscape:pageopacity="0"
     inkscape:pageshadow="2"
     inkscape:window-width="1366"
     inkscape:window-height="705"
     id="namedview180"
     showgrid="false"
     inkscape:zoom="2.2050176"
     inkscape:cx="12.28016"
     inkscape:cy="5.6686752"
     inkscape:window-x="-8"
     inkscape:window-y="-8"
     inkscape:window-maximized="1"
     inkscape:current-layer="surface52" />
  <defs
     id="defs35">
    <clipPath
       id="clip1">
      <path
         d="m 95,51 h 7.03906 V 61 H 95 Z m 0,0"
         id="path2"
         inkscape:connector-curvature="0" />
    </clipPath>
    <clipPath
       id="clip2">
      <path
         d="m 4,66 h 9 v 9.960938 H 4 Z m 0,0"
         id="path5"
         inkscape:connector-curvature="0" />
    </clipPath>
    <clipPath
       id="clip3">
      <path
         d="m 14,66 h 9 v 9.960938 h -9 z m 0,0"
         id="path8"
         inkscape:connector-curvature="0" />
    </clipPath>
    <clipPath
       id="clip4">
      <path
         d="m 23,66 h 9 v 9.960938 h -9 z m 0,0"
         id="path11"
         inkscape:connector-curvature="0" />
    </clipPath>
    <clipPath
       id="clip5">
      <path
         d="m 32,67 h 10 v 8.960938 H 32 Z m 0,0"
         id="path14"
         inkscape:connector-curvature="0" />
    </clipPath>
    <clipPath
       id="clip6">
      <path
         d="m 43,66 h 7 v 9.960938 h -7 z m 0,0"
         id="path17"
         inkscape:connector-curvature="0" />
    </clipPath>
    <clipPath
       id="clip7">
      <path
         d="m 51,67 h 10 v 8.960938 H 51 Z m 0,0"
         id="path20"
         inkscape:connector-curvature="0" />
    </clipPath>
    <clipPath
       id="clip8">
      <path
         d="m 61,67 h 9 v 8.960938 h -9 z m 0,0"
         id="path23"
         inkscape:connector-curvature="0" />
    </clipPath>
    <clipPath
       id="clip9">
      <path
         d="m 70,67 h 10 v 8.960938 H 70 Z m 0,0"
         id="path26"
         inkscape:connector-curvature="0" />
    </clipPath>
    <clipPath
       id="clip10">
      <path
         d="m 80,67 h 9 v 8.960938 h -9 z m 0,0"
         id="path29"
         inkscape:connector-curvature="0" />
    </clipPath>
    <clipPath
       id="clip11">
      <path
         d="m 90,66 h 9 v 9.960938 h -9 z m 0,0"
         id="path32"
         inkscape:connector-curvature="0" />
    </clipPath>
  </defs>
  <g
     id="surface52"
     transform="translate(-29.905214,182.76849)">
    <path
       style="fill:#214f99;fill-opacity:1;fill-rule:nonzero;stroke:none;stroke-width:5.3271451"
       d="M 140.74033,6.6631291 C 98.331257,5.7267129 64.5788,-29.524004 65.494403,-71.933077 c 0.436991,-20.559451 8.8647,-39.683063 23.701631,-53.895723 14.857746,-14.23347 34.335116,-21.808 54.873766,-21.3502 42.40906,0.9156 76.18233,36.16632 75.24592,78.575389 -0.43698,20.538643 -8.8647,39.70388 -23.70163,53.916538 C 180.77716,-0.49522236 161.27897,7.1001202 140.74033,6.6631291 Z M 84.826112,-130.40682 c -16.064672,15.37797 -25.179087,36.083086 -25.657694,58.328083 -0.99884,45.905007 35.542047,84.069011 81.426242,85.067851 22.245,0.478591 43.34549,-7.7202 59.41016,-23.098171 16.06467,-15.39878 25.15828,-36.103897 25.6577,-58.348889 0.97803,-45.905004 -35.54205,-84.069014 -81.44706,-85.047044 -22.245,-0.49942 -43.32468,7.7202 -59.389348,23.09817"
       id="path37"
       inkscape:connector-curvature="0" />
    <path
       style="fill:#214f99;fill-opacity:1;fill-rule:nonzero;stroke:none;stroke-width:5.3271451"
       d="M 140.09524,37.106928 C 80.872369,35.83757 33.73962,-13.376094 35.029791,-72.59897 c 0.624272,-28.67502 12.381447,-55.39398 33.107372,-75.24593 20.705116,-19.83113 47.923497,-30.42299 76.598527,-29.79872 28.67502,0.62428 55.39398,12.38146 75.24593,33.08657 19.83113,20.72593 30.42299,47.923503 29.79871,76.619332 C 248.51097,-8.7356502 199.29731,38.397099 140.09524,37.106928 Z M 64.599608,-151.50731 c -21.703957,20.76755 -34.002172,48.75587 -34.668065,78.804296 -1.331787,62.0113 48.027544,113.555591 110.038847,114.90819 62.0113,1.331787 113.55559,-48.0275436 114.90819,-110.038844 0.64508,-30.027621 -10.4462,-58.536172 -31.21374,-80.240122 -20.80917,-21.70396 -48.77668,-34.00218 -78.82511,-34.66807 -30.02762,-0.64508 -58.536166,10.4462 -80.240122,31.23455"
       id="path39"
       inkscape:connector-curvature="0" />
    <path
       style="fill:#214f99;fill-opacity:1;fill-rule:nonzero;stroke:none;stroke-width:5.3271451"
       d="M 164.79572,-3.3876971 C 123.03173,4.1244088 89.549793,-12.127545 83.431897,-32.187576 c -3.953738,-12.964109 1.789591,-15.773347 2.726002,-25.137467 -7.241588,3.849694 -8.573375,-6.18032 -2.184961,-7.054307 6.762976,-0.894795 9.780303,6.201133 6.492459,15.648489 -4.723681,13.567573 3.579175,19.851943 5.909801,19.165236 0.104039,-0.707508 0.936411,-2.455478 1.352594,-3.204608 -5.680899,-7.262396 -3.308658,-17.854263 6.388418,-18.728245 3.95373,-0.353776 3.55836,2.517907 0.81155,2.934091 -7.42887,1.061268 -7.075115,9.364125 -3.99536,10.425388 0.56185,0 1.18613,-0.145644 1.74797,-0.686701 -0.14564,-1.706349 1.04046,-4.099403 2.9549,-3.620791 4.28669,1.061263 2.64277,6.534074 -0.29134,6.971065 -1.10288,3.371086 -3.20461,8.053146 -2.76761,10.487817 0.45781,2.413863 2.16415,2.892475 3.55836,1.49826 1.04046,-1.040456 1.53988,-3.537555 2.20577,-6.263557 -0.70751,-3.058948 0.79075,-5.389574 3.37109,-4.286684 1.8104,0.769937 2.01849,3.537555 0.22891,5.680899 -0.22891,2.642765 -1.37341,5.618471 -1.1237,7.636964 0.24968,2.018487 3.01733,1.89363 4.01616,0.790745 0.97804,-1.102884 2.0185,-8.240427 2.41387,-9.801116 -1.53988,-1.373402 -0.93641,-5.576855 2.24739,-5.826565 3.74565,-0.312117 2.87166,4.78611 1.8104,6.055467 1.06126,3.974551 -0.64509,8.46933 0.10403,10.238108 0.76995,1.768777 3.68323,2.18496 4.9942,0.749129 1.31098,-1.456638 -0.33294,-4.515586 0.39538,-8.094762 -1.26935,-3.100564 0.20808,-5.576855 2.0393,-5.722521 4.18264,-0.332946 2.99652,3.433511 2.22658,6.076275 0.20808,2.684381 0.66589,5.93061 1.60231,8.406902 0.60346,1.623117 3.28784,1.997679 4.16183,-0.08326 0.56185,-1.310978 -0.70751,-4.973391 -0.99884,-7.595342 -1.8104,-4.203453 -0.29134,-5.347953 1.33179,-5.472811 1.53987,-0.124868 3.62079,0.728322 3.35027,4.890154 0.85318,2.809238 1.56069,6.18032 2.60115,8.386094 0.47859,1.747969 2.62195,1.93525 3.30865,0.124868 0.6659,-1.831206 -0.60346,-3.974551 -1.93525,-6.92945 -2.99652,-2.892474 -0.27051,-5.139864 1.43583,-5.285529 1.70635,-0.124868 4.36993,0.332946 3.80808,4.869346 0.91561,2.74681 1.51907,5.243909 2.12253,6.700547 0.70752,1.685547 3.05895,1.893635 4.05779,0.790751 0.99884,-1.123697 -0.9156,-3.058948 -1.41502,-5.431189 -2.2682,-2.184966 -1.85202,-5.202293 0.72832,-5.389575 1.31097,-0.104039 3.89131,0.04155 3.6416,3.891315 0.76994,1.664733 0.76994,3.787265 1.89364,5.576855 1.33178,2.226576 3.4127,1.373402 4.26587,-0.60347 0.81156,-1.997679 -4.36992,-7.782623 -0.31212,-8.094762 4.03698,-0.312117 4.74449,4.973391 6.05547,6.263556 1.31097,1.24855 2.30981,0.41621 2.93409,-0.270512 1.06127,-1.186121 -1.74797,-4.349114 0.20808,-5.264717 3.97455,-1.810398 3.89131,2.726002 6.72136,2.767617 12.29822,0.187303 21.97447,-19.997602 20.53864,-25.699315 -4.12021,-2.43467 -2.68438,-8.531753 0.76994,-8.594182 8.46933,-0.145644 7.28321,11.819603 0.85318,25.740931 -8.42771,18.208017 -29.15364,27.5929503 -37.99753,29.1744466"
       id="path41"
       inkscape:connector-curvature="0" />
    <path
       style="fill:#214f99;fill-opacity:1;fill-rule:nonzero;stroke:none;stroke-width:5.3271451"
       d="m 175.74134,-102.66821 c -1.37341,1.31098 -5.6809,1.60231 -7.88668,0.31212 -1.8312,-1.08208 -2.24739,-9.11441 -1.33178,-11.27857 0.9156,-2.16415 10.36296,-2.24739 11.11209,-0.76993 0.74913,1.49825 -0.52025,10.42538 -1.89363,11.73636 z m -16.89704,-9.92597 c 0.29134,1.14451 1.43583,6.20113 1.68554,9.26008 0.14564,1.1237 -0.24968,2.51791 -0.93641,2.76762 -1.70635,0.645083 -4.51559,0.47859 -6.05547,-0.10404 -1.68554,-0.64509 -0.54104,-7.34563 -6.72135,-8.53176 0.85317,-0.60346 1.31097,-1.22774 1.47744,-2.70519 0.10404,-0.95722 1.29017,-1.99768 2.74681,-2.16415 2.83005,-0.33295 4.59883,-0.39538 5.53524,-0.37455 0.95722,0.0416 1.95606,0.6867 2.2682,1.85201 z m -11.94446,33.253042 c -3.59999,-0.06242 -4.95258,-22.557132 -1.22774,-22.494702 3.35027,0.0833 3.72484,22.557131 1.22774,22.494702 z m 35.81257,-19.976795 c -0.14565,-0.04155 -0.18731,-0.291342 -0.14565,-0.395381 1.89364,-7.283206 3.26704,-10.487816 3.95375,-17.750216 0.1873,-1.74797 -1.06127,-3.16299 -2.22659,-3.43351 -4.49477,-1.12369 -6.55488,-1.08208 -8.30285,-1.22774 -0.1873,0 -0.58266,-0.0833 -0.72832,-0.33295 -0.52025,-1.06125 -1.26938,-4.24506 -1.29019,-5.84736 2.62195,-5.57686 -2.06011,-7.4913 -6.47165,-7.42887 -2.89248,-0.12486 -5.86818,1.20693 -6.20113,3.37108 -0.39538,4.22426 4.24507,5.76414 5.9098,5.9098 0.29134,0.60347 0.95722,3.53756 1.08208,4.70287 0.0208,0.14565 -0.12487,0.31212 -0.33295,0.31212 -7.47049,0.14565 -17.12594,1.45664 -22.0369,1.83121 -0.70751,0.10404 -1.04046,-0.29134 -1.18612,-0.70752 -0.9156,-2.5179 -4.80692,-14.37913 2.4971,-14.15023 4.3283,0.12486 7.9491,-3.4127 3.84969,-6.09708 -1.06127,-0.70751 -6.5965,-1.37341 -9.59302,-0.85317 -2.47629,0.41618 -3.68323,3.22541 -3.37109,5.66009 0.49942,3.84969 -9.05198,4.24507 -11.88203,3.10056 -2.01849,-0.83236 -4.49478,-3.22542 -5.36876,-4.76529 -1.83121,-3.28785 -5.01501,-0.79076 -4.43235,0.97802 3.95374,11.94446 16.5849,10.03002 19.89356,10.19649 0.16647,0.0208 0.45781,0.22891 0.45781,0.31212 0.81156,4.32831 3.37109,8.8647 3.37109,10.55024 -1.5815,1.74797 -0.8948,5.49362 1.31097,6.1179 -2.70519,2.60114 -3.93293,11.694744 -3.47512,19.227663 0.54103,9.61383 4.43235,18.936334 10.52943,17.916686 7.76182,-1.269357 4.70287,-19.227664 6.5965,-20.746732 0.93642,-0.769938 3.45433,-0.561849 4.39074,-0.457815 0.20808,0.04155 0.31211,0.270513 0.31211,0.395381 -0.62427,7.054307 -2.28901,18.353683 -2.70519,21.37101 -0.41621,3.058948 -0.66589,4.661252 0.87399,7.491298 1.72716,3.121371 4.82772,13.068153 1.18612,23.576778 -0.10404,0.41621 -0.45782,0.561849 -0.56185,0.582657 -3.30865,0.74913 -5.05662,1.78959 -6.26356,2.601144 -1.29016,0.873987 -2.68438,2.726001 -1.72716,3.828885 1.37341,1.24855 10.23811,0.769943 12.96411,-3.329466 0.0833,-0.104039 0.24968,-0.47859 0.29134,-0.582656 0.93641,-2.621952 2.14334,-4.557202 3.01733,-6.242748 4.0994,-7.803432 4.70287,-17.396459 -0.9156,-21.724765 -1.56069,-1.206928 -3.1838,-2.372242 -1.64393,-5.410382 2.95491,-5.868181 3.26704,-12.29821 3.64161,-17.708592 0.14564,-2.184966 3.78726,-3.433515 5.13986,-1.373407 3.4127,8.053147 0.72832,14.982596 0.6867,17.83345 -0.0624,2.871667 1.01965,4.203453 1.3734,5.909801 2.33063,10.487818 1.16532,18.977955 -0.93641,29.819532 -0.0208,0.228908 -0.1873,0.395381 -0.39538,0.457815 -2.47628,0.811559 -3.97454,1.331787 -5.51442,2.413863 -1.56069,1.082076 -2.18497,2.497099 -1.49826,3.246229 2.0601,2.330626 11.38261,-0.187302 12.09012,-2.871661 1.74797,-6.638124 14.29589,-22.016096 5.55604,-31.83802 -3.99535,-4.494779 -3.99535,-2.68438 -4.03697,-4.952577 -0.0208,-1.082077 2.51791,-7.0335 3.14218,-11.632323 0.66589,-4.806917 -2.47629,-9.364125 -1.68554,-12.006885 0.0208,-0.08326 0.20808,-0.208078 0.29134,-0.187302 1.31097,0.249683 4.39073,1.061269 6.3676,2.205774 0.60346,0.332946 1.68554,0.06243 1.83121,-2.309819 0.16646,-2.580288 -6.38843,-5.077387 -7.67859,-5.555999"
       id="path43"
       inkscape:connector-curvature="0" />
    <path
       style="fill:#214f99;fill-opacity:1;fill-rule:nonzero;stroke:none;stroke-width:5.3271451"
       d="m 103.8665,-66.439458 c -1.26937,-0.707509 -0.29135,-3.267037 1.56068,-3.537555 1.29017,-0.208078 5.6809,-0.728322 7.19997,-0.06243 1.18612,0.520249 1.99768,2.975711 1.33179,3.704033 -1.24855,1.39421 -8.26124,0.89479 -10.09244,-0.104044 z m -14.649653,-8.11557 c -0.124868,-1.519068 1.93525,-3.225422 3.495939,-2.892475 1.269357,0.270512 5.160672,4.369926 5.347953,5.347953 0.332947,1.768783 -1.082076,3.162992 -2.268197,3.246229 -1.831206,0.145644 -6.430035,-4.036975 -6.575695,-5.701707 z m 0.769937,-8.282049 c -0.894795,1.061268 -2.892474,1.747969 -3.870506,0.978032 -1.456639,-1.165313 -1.89363,-5.93061 -0.936411,-7.949097 0.624277,-1.3526 3.953743,-2.122537 4.557208,-0.561849 0.416209,1.061269 0.915603,6.742168 0.249683,7.532914 z m 1.144506,-13.484337 c -1.623118,0.811559 -3.100569,-0.291341 -3.267043,-2.268197 -0.166473,-1.976869 4.494779,-6.804599 6.180325,-6.346789 0.811554,0.20807 2.060103,1.78958 1.914443,3.1838 -0.08326,0.97803 -3.891314,4.95258 -4.827725,5.431186 z m 25.2207,17.209178 c -1.66473,-0.728322 -6.01385,-6.43003 -4.47397,-7.990718 1.45664,-1.456639 7.55373,-4.536394 8.53176,-3.620791 3.76646,3.516747 -0.79075,13.04734 -4.05779,11.611509 z m -17.750215,-1.165313 c 0,-1.102884 5.701715,-4.973391 7.949105,-4.120211 1.8104,0.665893 4.64044,7.782623 3.12137,8.510945 -4.16183,1.935251 -11.070475,-2.559528 -11.070475,-4.390734 z m 1.415025,-17.354838 c 0.81156,-0.187302 4.61963,5.722515 3.91212,7.886668 -0.58266,1.85202 -7.574535,4.453163 -8.282044,3.766462 -2.143345,-2.143345 -0.270512,-10.675103 4.369924,-11.65313 z m 17.22998,1.539875 c 0,1.831207 -6.34679,4.869347 -7.61615,4.120217 -1.8312,-1.10289 -5.61847,-6.700553 -4.82772,-7.678585 2.726,-3.39189 12.44387,0.707515 12.44387,3.558368 z m -5.45199,-12.402258 c 0.39538,0.85317 0.87398,1.99768 -0.0208,2.97571 -0.72832,0.81156 -7.47049,1.04046 -8.46933,0.97803 -2.12254,-0.14564 -3.12138,-2.30982 -2.41386,-3.39189 1.26935,-1.99768 10.17568,-2.16416 10.904,-0.56185 z m 14.79531,8.594181 c -0.20808,1.165313 -2.14334,1.623117 -2.99652,1.53988 -1.04046,-0.124868 -5.43119,-3.558371 -5.70171,-4.765301 -0.37455,-1.58149 0.6867,-2.58033 1.70635,-2.83004 2.726,-0.68671 7.30401,4.36992 6.99188,6.055461 z m 3.76646,15.898199 c -0.99884,0.665893 -2.89248,0.79075 -3.68322,-0.41621 -0.54104,-0.832367 -0.72832,-6.92945 -0.35378,-7.845053 0.37455,-0.936411 2.41386,-1.623112 3.57918,-0.998839 1.33178,0.749129 2.08091,8.177999 0.45781,9.260075 z m -6.51327,6.097088 c 1.01965,-0.104039 2.97571,0.124868 3.53756,1.539875 0.62427,1.539881 -3.64161,6.367606 -5.61848,6.92945 -1.20693,0.353775 -2.99651,-1.456639 -2.66357,-3.267037 0.20808,-1.144506 3.91212,-5.139865 4.74449,-5.202288 z m 11.32018,-13.65081 c -0.70751,-8.510948 -8.6358,-19.747898 -20.2265,-21.683148 -12.56873,-2.08092 -32.129345,2.9549 -34.251882,21.454246 -2.184961,19.144428 12.464689,33.357087 30.048432,32.004487 19.082,-1.456638 25.42879,-19.727084 24.42995,-31.775585"
       id="path45"
       inkscape:connector-curvature="0" />
    <path
       style="fill:#214f99;fill-opacity:1;fill-rule:nonzero;stroke:none;stroke-width:5.3271451"
       d="m 107.65376,-165.8032 -0.54103,4.28669 -2.78843,3.32946 4.28669,0.54104 3.32946,2.78843 0.54104,-4.3075 2.76761,-3.30865 -4.28668,-0.54104 -3.30866,-2.78843"
       id="path47"
       inkscape:connector-curvature="0" />
    <path
       style="fill:#214f99;fill-opacity:1;fill-rule:nonzero;stroke:none;stroke-width:5.3271451"
       d="m 187.91469,20.085037 -3.47512,-2.559528 -4.32831,-0.249684 2.55953,-3.495939 0.27051,-4.3283053 3.47512,2.5595283 4.3075,0.270512 -2.53871,3.495939 -0.27052,4.307498"
       id="path49"
       inkscape:connector-curvature="0" />
    <path
       style="fill:#214f99;fill-opacity:1;fill-rule:nonzero;stroke:none;stroke-width:5.3271451"
       d="m 96.562479,19.939371 3.516751,-2.559528 4.30749,-0.228907 -2.53872,-3.516753 -0.24968,-4.3283051 -3.495939,2.5595281 -4.307492,0.249683 2.517907,3.495939 0.249683,4.328306"
       id="path51"
       inkscape:connector-curvature="0" />
    <path
       style="fill:#214f99;fill-opacity:1;fill-rule:nonzero;stroke:none;stroke-width:5.3271451"
       d="m 72.69437,1.3775995 4.390735,-5.1814798 c 1.997679,-2.3514339 5.202287,-2.1641528 8.240427,0.4369857 3.079756,2.60114383 3.766457,5.7641363 1.768778,8.0947624 l -4.411542,5.160672 C 82.141732,10.533625 82.120919,10.88738 82.849241,11.490849 L 81.267745,12.697778 77.043484,9.0561733 77.9799,7.3498248 c 0.728316,0.6034643 1.061263,0.520249 1.602304,-0.1040392 l 4.411542,-5.1814851 c 0.894795,-1.0196476 0.811559,-2.28900509 -0.561849,-3.4543181 -1.415023,-1.206934 -2.68438,-1.1028842 -3.558368,-0.062429 l -4.411542,5.1814798 c -0.561843,0.6242775 -0.582656,0.9780319 0.124869,1.5814962 l -1.539881,1.206934 -3.891309,-3.3086579 0.915603,-1.7479696 c 0.728317,0.6242775 1.082076,0.5410409 1.623112,-0.083263"
       id="path53"
       inkscape:connector-curvature="0" />
    <path
       style="fill:#214f99;fill-opacity:1;fill-rule:nonzero;stroke:none;stroke-width:5.3271451"
       d="m 58.544141,-15.831578 9.322504,-6.971065 1.727161,2.330626 -2.913282,9.842732 c -0.187303,0.6867008 -0.728322,1.7687772 -0.728322,1.7687772 0,0 0.853174,-0.7907455 1.269357,-1.1028842 l 4.099409,-3.079756 c 0.64508,-0.478591 0.769938,-0.811559 0.208078,-1.560688 l 1.768778,-0.853175 2.809238,3.745649 -1.269358,1.49826 c -0.582656,-0.74913 -0.957224,-0.74913 -1.602304,-0.249683 l -6.825405,5.1190507 c -0.665893,0.4994199 -0.769942,0.8323665 -0.208078,1.6023094 l -1.789585,0.8115533 -2.517913,-3.3710814 2.642765,-8.947942 c 0.228908,-0.686701 0.769938,-1.789585 0.769938,-1.789585 0,0 -0.853174,0.790745 -1.352594,1.144505 l -3.475131,2.642759 c -0.665894,0.478591 -0.769938,0.811559 -0.208079,1.581497 l -1.768777,0.832366 -2.830046,-3.766457 1.290165,-1.477451 c 0.582657,0.769942 0.915603,0.749129 1.581497,0.249683"
       id="path55"
       inkscape:connector-curvature="0" />
    <path
       style="fill:#214f99;fill-opacity:1;fill-rule:nonzero;stroke:none;stroke-width:5.3271451"
       d="m 62.123316,-33.665028 2.434671,4.890154 -1.560683,1.206929 c -0.41621,-0.832367 -0.790751,-0.89479 -1.49826,-0.541036 l -7.657771,3.787265 c -0.74913,0.374552 -0.915603,0.686706 -0.49942,1.539881 l -1.893635,0.49942 -2.413863,-4.890155 1.539875,-1.227742 c 0.41621,0.85318 0.769943,0.915604 1.519073,0.561849 l 7.657772,-3.787265 c 0.707508,-0.374551 0.894789,-0.686706 0.47859,-1.53988 l 1.893635,-0.49942"
       id="path57"
       inkscape:connector-curvature="0" />
    <path
       style="fill:#214f99;fill-opacity:1;fill-rule:nonzero;stroke:none;stroke-width:5.3271451"
       d="m 44.768478,-48.29387 12.589542,1.144506 1.102884,3.745649 -9.96759,7.7202 c -0.728316,0.561848 -0.811553,0.853174 -0.561843,1.68554 l -1.976872,0.145645 -1.519067,-5.202293 1.706348,-0.957219 c 0.249684,0.74913 0.541041,0.853174 1.186121,0.395381 l 4.827726,-3.620797 c 0.790751,-0.561849 2.476291,-1.352594 2.476291,-1.352594 0,0 -1.852014,0.187302 -2.830046,0.145644 l -6.076275,-0.603433 c -0.811558,-0.04155 -0.978032,0.291342 -0.74913,1.061269 l -1.956058,0.166473 -1.373407,-4.640444 1.727161,-0.936411 c 0.249684,0.873988 0.478591,1.019648 1.394215,1.102884"
       id="path59"
       inkscape:connector-curvature="0" />
    <path
       style="fill:#214f99;fill-opacity:1;fill-rule:nonzero;stroke:none;stroke-width:5.3271451"
       d="m 54.07017,-68.000141 1.04046,11.278562 -1.893635,0.603465 c -0.08326,-0.957219 -0.39538,-1.1445 -1.206928,-1.061263 l -8.510951,0.769937 c -0.832367,0.08326 -1.082077,0.312118 -0.99884,1.269358 l -1.956059,-0.270513 -0.978031,-10.758335 3.475131,-0.332946 0.436986,1.498259 c -1.123693,0.270513 -1.352595,0.603465 -1.206929,2.226576 l 0.249683,2.517913 3.495939,-0.332947 -0.187302,-2.268202 c -0.103997,-0.978032 -0.291278,-1.310979 -1.040408,-1.248555 l 0.228908,-1.581496 3.475126,-0.332947 0.541041,1.539881 c -0.790751,0.06243 -0.915604,0.436985 -0.832367,1.394215 l 0.208078,2.268197 3.828886,-0.332947 -0.312117,-3.475131 c -0.145645,-1.519067 -0.582657,-1.768777 -1.643925,-1.852014 l 0.166473,-1.623117 3.620791,0.104039"
       id="path61"
       inkscape:connector-curvature="0" />
    <path
       style="fill:#214f99;fill-opacity:1;fill-rule:nonzero;stroke:none;stroke-width:5.3271451"
       d="m 42.500276,-81.71338 -0.249683,2.164153 4.182645,0.457815 0.228907,-2.080916 c 0.187303,-1.581497 -0.520249,-2.4971 -1.789585,-2.64276 -1.29017,-0.145644 -2.205773,0.541036 -2.372247,2.101724 z m 13.130582,-6.055467 -0.457815,4.307498 c -2.28901,1.914442 -5.888994,-0.04155 -6.22194,2.892474 l -0.187303,1.74797 2.788425,0.312117 c 0.790751,0.08326 1.123697,-0.06243 1.227742,-0.998839 l 1.872822,0.603469 -0.603465,5.389569 -1.956058,0.208078 c 0.104039,-0.978032 -0.187302,-1.206934 -0.978032,-1.29017 l -8.4901,-0.936379 c -0.811559,-0.104039 -1.123698,0.08326 -1.24855,1.019647 l -1.852014,-0.64508 0.811553,-7.345638 c 0.41621,-3.558362 2.101729,-5.493618 4.827726,-5.202287 1.747969,0.208078 2.871666,1.290165 3.371086,3.1838 0.686701,-1.768777 2.413863,-2.018487 3.454318,-2.122532 1.206934,-0.104039 1.623118,-0.291341 1.74797,-1.415023 l 0.04155,-0.332946 1.852014,0.624272"
       id="path63"
       inkscape:connector-curvature="0" />
    <path
       style="fill:#214f99;fill-opacity:1;fill-rule:nonzero;stroke:none;stroke-width:5.3271451"
       d="m 58.668998,-97.15378 c -0.873987,2.726001 -2.413863,4.432355 -3.162992,5.160672 l -2.74681,-1.727157 0.395381,-1.269362 c 1.74797,0 2.830046,-1.39421 3.308658,-2.830046 0.353776,-1.102885 0.208078,-2.434667 -0.957219,-2.809237 -1.019653,-0.31211 -1.727161,0.29135 -2.871667,2.455482 -1.123692,2.205774 -2.954898,4.18264 -5.784944,3.267037 -2.746809,-0.89479 -3.516752,-3.849693 -2.517912,-6.991879 0.769943,-2.39305 2.0393,-4.05778 2.746809,-4.7861 l 2.601149,1.66473 -0.395381,1.24855 c -1.519067,0.16647 -2.43467,1.41502 -2.78843,2.53871 -0.395381,1.248554 -0.124868,2.309822 0.811559,2.601153 0.894795,0.291342 1.560688,-0.353775 2.393055,-1.956063 1.539875,-2.91328 3.204608,-4.82773 6.284364,-3.84969 3.03814,0.97803 3.662412,4.20344 2.684386,7.2832"
       id="path65"
       inkscape:connector-curvature="0" />
    <path
       style="fill:#214f99;fill-opacity:1;fill-rule:nonzero;stroke:none;stroke-width:5.3271451"
       d="m 65.161456,-112.86469 -2.497099,4.84853 -1.893635,-0.52025 c 0.436986,-0.83237 0.249683,-1.16531 -0.478591,-1.53988 l -7.595342,-3.89131 c -0.728322,-0.37456 -1.082076,-0.33295 -1.519068,0.52025 l -1.519072,-1.22775 2.497099,-4.86934 1.872827,0.52025 c -0.41621,0.85317 -0.270512,1.16531 0.478591,1.53987 l 7.595342,3.91212 c 0.728322,0.35378 1.082077,0.31212 1.519068,-0.54103 l 1.53988,1.24855"
       id="path67"
       inkscape:connector-curvature="0" />
    <path
       style="fill:#214f99;fill-opacity:1;fill-rule:nonzero;stroke:none;stroke-width:5.3271451"
       d="m 65.82735,-132.98715 c -0.915603,-0.45781 -1.456644,-0.49942 -2.372247,0.72832 l -0.832367,1.16531 7.345633,5.36876 c 0.645085,0.47859 0.998839,0.52025 1.560688,-0.24968 l 1.331786,1.45664 -3.204608,4.3699 -1.810398,-0.79075 c 0.582656,-0.79075 0.436986,-1.12369 -0.208078,-1.60231 l -7.345633,-5.38957 -0.853174,1.1445 c -0.894795,1.24855 -0.686701,1.76879 0.02078,2.4763 l -1.186121,1.08207 -2.684381,-2.45548 7.720195,-10.55024 3.183806,1.8104 -0.665893,1.43583"
       id="path69"
       inkscape:connector-curvature="0" />
    <path
       style="fill:#214f99;fill-opacity:1;fill-rule:nonzero;stroke:none;stroke-width:5.3271451"
       d="m 75.399564,-142.35128 c -0.728322,-0.41618 -2.205774,-1.66473 -2.205774,-1.66473 0,0 1.061269,1.66473 1.435831,2.39305 l 1.560688,3.70404 2.74681,-2.55953 z m 12.485497,2.39306 -3.932936,3.6416 -1.602304,-1.1237 c 0.520249,-0.4786 0.561849,-0.81155 -0.187302,-1.20692 l -1.061269,-0.54105 -3.808078,3.55837 0.436986,1.10289 c 0.353776,0.81155 0.74913,0.70751 1.290165,0.18728 l 1.019648,1.68554 -3.391889,3.163 -1.60231,-1.1237 c 0.624278,-0.58266 0.728322,-0.9156 0.374552,-1.74797 l -3.683221,-8.65661 c -0.228854,-0.54104 -0.582608,-0.70751 -1.269314,-0.0624 l -0.978027,-1.70635 5.618471,-5.26472 1.623117,1.1237 c -0.686706,0.64508 -0.60347,0.95722 -0.06243,1.22774 l 8.46933,4.28669 c 0.74913,0.39537 1.082076,0.37456 1.727156,-0.2289 l 1.019653,1.68554"
       id="path71"
       inkscape:connector-curvature="0" />
    <path
       style="fill:#214f99;fill-opacity:1;fill-rule:nonzero;stroke:none;stroke-width:5.3271451"
       d="m 96.06306,-144.99404 c -2.434671,1.49826 -4.702874,1.83121 -5.743329,1.89363 l -0.978032,-3.12137 1.123698,-0.6867 c 1.310973,1.12369 3.058942,0.76994 4.349113,-0.0208 0.978032,-0.60347 1.727162,-1.70635 1.061268,-2.76762 -0.561848,-0.8948 -1.477451,-0.87398 -3.745649,0.0208 -2.28901,0.93641 -4.97339,1.26936 -6.534079,-1.24855 -1.519067,-2.47629 -0.187281,-5.2231 2.621957,-6.97107 2.14334,-1.31098 4.161832,-1.76878 5.18148,-1.85202 l 0.894795,2.95491 -1.102889,0.6867 c -1.269358,-0.87398 -2.767617,-0.49942 -3.766457,0.12486 -1.123692,0.6867 -1.581496,1.68554 -1.061269,2.49709 0.478591,0.81156 1.415023,0.74913 3.100569,0.0624 3.058943,-1.22774 5.556042,-1.60231 7.283204,1.16531 1.66473,2.68439 0.06243,5.55605 -2.68438,7.2624"
       id="path73"
       inkscape:connector-curvature="0" />
    <path
       style="fill:#214f99;fill-opacity:1;fill-rule:nonzero;stroke:none;stroke-width:5.3271451"
       d="m 137.14034,-164.34656 c -0.99884,0.14567 -1.16531,0.47861 -1.06126,1.24855 l 0.14564,1.1237 c 0.12487,0.74913 0.29134,0.9156 0.79075,0.85317 l -0.12487,1.87282 c -2.08091,0.41619 -2.43467,1.33179 -5.59766,1.74797 -4.26588,0.58266 -8.13638,-0.99884 -8.8647,-6.40922 -0.66589,-4.97338 2.20577,-7.90748 6.84621,-8.53175 2.76762,-0.37457 4.91097,0.43699 5.82657,0.81156 l -0.37455,3.35027 -1.26936,0.16647 c -0.64509,-1.45664 -1.99768,-1.91444 -3.49594,-1.70635 -2.66357,0.35376 -3.8705,2.06011 -3.4127,5.36877 0.43698,3.35027 1.87283,4.64044 4.47397,4.28668 0.64509,-0.0832 1.41502,-0.37456 1.83121,-0.6867 l -0.24969,-1.76878 c -0.10404,-0.79075 -0.33294,-1.06127 -1.35259,-0.93641 l -0.24968,0.0416 0.14564,-1.95606 5.59767,-0.74913 0.66589,1.85201 -0.27051,0.0208"
       id="path75"
       inkscape:connector-curvature="0" />
    <path
       style="fill:#214f99;fill-opacity:1;fill-rule:nonzero;stroke:none;stroke-width:5.3271451"
       d="m 150.54144,-170.29798 c -2.289,-0.18728 -3.45432,0.97803 -3.76646,4.59883 -0.29134,3.62079 0.70752,4.97339 2.97572,5.13986 2.33062,0.18728 3.45431,-0.97803 3.74564,-4.59883 0.29135,-3.62079 -0.64508,-4.95258 -2.9549,-5.13986 z m -0.99884,12.40226 c -4.41154,-0.35376 -7.34563,-2.64276 -6.88783,-8.13638 0.43699,-5.47281 3.70403,-7.2624 8.09477,-6.90864 4.47397,0.35375 7.34563,2.64276 6.90864,8.11557 -0.43699,5.49362 -3.64161,7.28321 -8.11558,6.92945"
       id="path77"
       inkscape:connector-curvature="0" />
    <path
       style="fill:#214f99;fill-opacity:1;fill-rule:nonzero;stroke:none;stroke-width:5.3271451"
       d="m 173.70204,-164.20089 c 0.10404,-0.99884 -0.0416,-1.53989 -1.53988,-1.93526 l -1.3734,-0.37456 -2.39306,8.78147 c -0.20807,0.79074 -0.10404,1.12369 0.79075,1.3734 l -0.87398,1.74797 -5.2231,-1.41503 0.0832,-1.97687 c 0.93641,0.27053 1.20694,0.0208 1.41503,-0.76994 l 2.41386,-8.78146 -1.3734,-0.37457 c -1.49826,-0.41618 -1.89364,-0.0208 -2.30982,0.8948 l -1.43583,-0.70752 1.33178,-3.4127 12.63116,3.45433 -0.54103,3.62079 -1.60231,-0.12485"
       id="path79"
       inkscape:connector-curvature="0" />
    <path
       style="fill:#214f99;fill-opacity:1;fill-rule:nonzero;stroke:none;stroke-width:5.3271451"
       d="m 188.99677,-145.49346 -4.82772,-2.45548 0.49942,-1.91444 c 0.85317,0.4578 1.16531,0.24971 1.51907,-0.4578 l 1.49826,-2.91329 -4.93178,-2.51791 -1.47744,2.91328 c -0.37457,0.72833 -0.33295,1.08208 0.49942,1.51908 l -1.22775,1.51906 -4.82772,-2.43467 0.49942,-1.91444 c 0.85317,0.43699 1.18612,0.24971 1.53987,-0.47861 l 3.89132,-7.59534 c 0.37455,-0.74913 0.33294,-1.08208 -0.54104,-1.51908 l 1.24855,-1.51906 4.82773,2.43467 -0.52025,1.91444 c -0.85316,-0.43699 -1.14449,-0.27052 -1.51905,0.47861 l -1.18612,2.33063 4.91096,2.51791 1.20693,-2.35144 c 0.37455,-0.72832 0.33294,-1.08208 -0.54104,-1.51907 l 1.24855,-1.51906 4.82773,2.45547 -0.49942,1.89364 c -0.85318,-0.43699 -1.14451,-0.27052 -1.51907,0.47861 l -3.89132,7.61615 c -0.35375,0.70752 -0.33294,1.08208 0.52023,1.49826 l -1.22774,1.53988"
       id="path81"
       inkscape:connector-curvature="0" />
    <path
       style="fill:#214f99;fill-opacity:1;fill-rule:nonzero;stroke:none;stroke-width:5.3271451"
       d="m 206.12271,-147.78247 c -1.74797,-1.45664 -3.39189,-1.18612 -5.70171,1.62312 -2.30981,2.80923 -2.2682,4.47396 -0.49942,5.9098 1.78959,1.47745 3.41271,1.18612 5.70171,-1.62312 2.30982,-2.80923 2.30982,-4.43235 0.49942,-5.9098 z m -7.88667,9.59302 c -3.4127,-2.80923 -4.51559,-6.34679 -1.01965,-10.61267 3.49594,-4.24506 7.19997,-3.84969 10.61268,-1.04046 3.45431,2.85086 4.51558,6.36761 1.01964,10.61268 -3.49594,4.26588 -7.15835,3.89131 -10.61267,1.04045"
       id="path83"
       inkscape:connector-curvature="0" />
    <path
       style="fill:#214f99;fill-opacity:1;fill-rule:nonzero;stroke:none;stroke-width:5.3271451"
       d="m 217.0059,-132.21722 1.10289,1.3526 c 0.9156,1.1237 1.87283,1.20693 2.70519,0.54104 0.81156,-0.66589 0.95722,-1.53988 0.0208,-2.70519 l -1.12367,-1.39421 z m -1.8312,1.45665 -3.28785,2.66357 1.31098,1.62311 c 0.99884,1.22774 2.14334,1.33179 3.12137,0.52025 0.99884,-0.79074 1.1237,-1.99768 0.0833,-3.26703 z m -3.47513,5.99304 -4.47397,-5.57686 1.20693,-1.53988 c 0.60346,0.74913 0.97803,0.70752 1.6023,0.2081 l 6.65894,-5.36877 c 0.64508,-0.52023 0.72832,-0.85318 0.14564,-1.6023 l 1.76878,-0.87399 4.18264,5.2231 c 2.2682,2.80924 2.53872,5.20229 0.54104,6.8254 -0.93641,0.74913 -2.43467,0.76994 -3.55837,0.20808 0.70751,1.81039 0.14564,3.4127 -1.12369,4.43235 -2.12254,1.70635 -4.68207,0.85318 -6.95026,-1.93525"
       id="path85"
       inkscape:connector-curvature="0" />
    <path
       style="fill:#214f99;fill-opacity:1;fill-rule:nonzero;stroke:none;stroke-width:5.3271451"
       d="m 234.29832,-109.63928 -6.03466,3.07976 c -2.74681,1.39421 -5.63928,0.0208 -7.47049,-3.55836 -1.83121,-3.57918 -1.24855,-6.74217 1.49826,-8.15719 l 6.03466,-3.07976 c 0.74913,-0.37455 0.89479,-0.70751 0.45781,-1.53988 l 1.91445,-0.49942 2.53872,4.97339 -1.53988,1.22774 c -0.4162,-0.85318 -0.76996,-0.9156 -1.51909,-0.52023 l -6.05547,3.07975 c -1.20692,0.62428 -1.62311,1.8104 -0.79074,3.41271 0.83237,1.66473 2.03929,2.06011 3.24623,1.43583 l 6.07627,-3.10057 c 0.72833,-0.37455 0.8948,-0.6867 0.47859,-1.51906 l 1.89363,-0.52025 2.30982,4.55721 -1.51907,1.24854 c -0.4162,-0.85317 -0.76993,-0.9156 -1.51906,-0.52024"
       id="path87"
       inkscape:connector-curvature="0" />
    <path
       style="fill:#214f99;fill-opacity:1;fill-rule:nonzero;stroke:none;stroke-width:5.3271451"
       d="m 239.66708,-95.86361 -0.56185,-2.101723 -4.05778,1.061263 0.54103,2.0393 c 0.39538,1.539875 1.39422,2.143345 2.62196,1.810399 1.24855,-0.332947 1.85202,-1.290171 1.45664,-2.809239 z m -10.07163,10.383773 -1.10289,-4.182645 c 1.43583,-2.601144 5.49362,-2.080916 4.72368,-4.93177 l -0.45781,-1.706349 -2.70519,0.707509 c -0.76994,0.208079 -1.01965,0.478591 -0.76994,1.394215 l -1.97687,0.10404 -1.37341,-5.243909 1.74797,-0.894794 c 0.24969,0.936415 0.60347,1.040459 1.37341,0.832365 l 8.26124,-2.184965 c 0.76993,-0.1873 1.01964,-0.47859 0.76993,-1.39421 l 1.97687,-0.0833 1.89364,7.158348 c 0.9156,3.454323 0.0416,5.888993 -2.60115,6.575694 -1.72716,0.457815 -3.16299,-0.145644 -4.28668,-1.727156 -0.0208,1.89363 -1.53988,2.746809 -2.45549,3.225416 -1.10288,0.520249 -1.41502,0.85318 -1.1445,1.935256 l 0.0833,0.332947 -1.95607,0.08326"
       id="path89"
       inkscape:connector-curvature="0" />
    <path
       style="fill:#214f99;fill-opacity:1;fill-rule:nonzero;stroke:none;stroke-width:5.3271451"
       d="m 236.58732,-67.500721 c -0.0624,-0.99884 -0.37455,-1.206934 -1.16531,-1.165313 l -1.12369,0.06243 c -0.76994,0.04155 -0.95723,0.208078 -0.9156,0.707514 l -1.85202,-0.291342 c -0.22891,-2.101724 -1.1237,-2.538715 -1.26936,-5.722515 -0.22891,-4.28669 1.68554,-8.032339 7.13754,-8.302857 4.9942,-0.249683 7.69939,2.871662 7.92829,7.553727 0.12487,2.788425 -0.85317,4.869341 -1.31098,5.743329 l -3.30865,-0.665894 -0.0624,-1.29017 c 1.51907,-0.49942 2.06011,-1.810399 1.99768,-3.329466 -0.12487,-2.663573 -1.72716,-4.016167 -5.05663,-3.849694 -3.37108,0.166474 -4.7861,1.456639 -4.64044,4.099404 0.0208,0.624277 0.24968,1.435831 0.49942,1.872827 l 1.8104,-0.08326 c 0.79075,-0.04155 1.08207,-0.249684 1.04046,-1.269363 l -0.0208,-0.270512 1.93526,0.312117 0.27051,5.639284 -1.89363,0.49942 v -0.249683"
       id="path91"
       inkscape:connector-curvature="0" />
    <path
       style="fill:#214f99;fill-opacity:1;fill-rule:nonzero;stroke:none;stroke-width:5.3271451"
       d="m 228.65903,-51.040679 1.70635,-11.174518 1.97687,-0.145666 c -0.14564,0.936417 0.12487,1.206934 0.91561,1.331787 l 8.44852,1.29017 c 0.83237,0.124869 1.1445,-0.04155 1.26936,-0.998839 l 1.8312,0.728322 -1.62311,10.695906 -3.45432,-0.541036 -0.0624,-1.53988 c 1.14451,0 1.43584,-0.249684 1.68555,-1.872822 l 0.39538,-2.4971 -3.49594,-0.520249 -0.33295,2.24739 c -0.16647,0.957224 -0.0416,1.331786 0.70751,1.456644 l -0.62427,1.477452 -3.43351,-0.520249 -0.16648,-1.602304 c 0.76994,0.104039 0.97804,-0.208079 1.14451,-1.165314 l 0.33295,-2.268197 -3.80808,-0.561848 -0.52025,3.43351 c -0.22891,1.498259 0.14564,1.852019 1.1445,2.205774 l -0.54104,1.519067 -3.49594,-0.978032"
       id="path93"
       inkscape:connector-curvature="0" />
    <path
       style="fill:#214f99;fill-opacity:1;fill-rule:nonzero;stroke:none;stroke-width:5.3271451"
       d="m 233.40352,-28.85811 -10.88319,-4.099404 1.04046,-2.726001 9.86354,-2.830046 c 0.6867,-0.187303 1.87283,-0.332947 1.87283,-0.332947 0,0 -1.10289,-0.291341 -1.60231,-0.478591 l -4.78611,-1.810398 c -0.76993,-0.270512 -1.12369,-0.208078 -1.45664,0.686706 l -1.64392,-1.061268 1.64392,-4.369927 1.95606,0.291342 c -0.33294,0.873982 -0.12486,1.186121 0.62428,1.456639 l 7.99071,3.017332 c 0.76995,0.291341 1.1237,0.208078 1.45665,-0.686706 l 1.64392,1.082076 -1.47745,3.932935 -8.96875,2.580336 c -0.6867,0.187303 -1.91444,0.312118 -1.91444,0.312118 0,0 1.1445,0.291341 1.68554,0.49942 l 4.09941,1.53988 c 0.76994,0.291342 1.10288,0.208079 1.43583,-0.686701 l 1.66473,1.061264 -1.66473,4.390734 -1.93525,-0.312118 c 0.33295,-0.873982 0.14564,-1.165313 -0.64509,-1.456638"
       id="path95"
       inkscape:connector-curvature="0" />
    <path
       style="fill:#214f99;fill-opacity:1;fill-rule:nonzero;stroke:none;stroke-width:5.3271451"
       d="m 216.83943,-23.447729 c 1.53988,-2.43467 3.43351,-3.704033 4.34911,-4.224261 l 2.22659,2.372247 -0.70752,1.123693 c -1.68554,-0.436986 -3.07975,0.624277 -3.89131,1.914442 -0.62427,0.978032 -0.81156,2.309819 0.22891,2.954904 0.9156,0.582656 1.72716,0.145644 3.37109,-1.643925 1.64391,-1.852014 3.93292,-3.308658 6.43002,-1.727162 2.45548,1.539881 2.45548,4.598823 0.6867,7.387254 -1.33179,2.122531 -2.97571,3.412702 -3.8497,3.93293 l -2.10172,-2.24739 0.70751,-1.102884 c 1.49826,0.228908 2.70519,-0.769937 3.32946,-1.768777 0.68671,-1.10289 0.68671,-2.205774 -0.14564,-2.726002 -0.79075,-0.499419 -1.60231,-0.02077 -2.80924,1.310979 -2.22658,2.43467 -4.3075,3.870501 -7.05431,2.143339 -2.68438,-1.706348 -2.49709,-4.973385 -0.76993,-7.699387"
       id="path97"
       inkscape:connector-curvature="0" />
    <path
       style="fill:#214f99;fill-opacity:1;fill-rule:nonzero;stroke:none;stroke-width:5.3271451"
       d="m 206.47647,-9.6512533 3.6416,-4.0994087 1.70635,0.978032 c -0.64508,0.707514 -0.54104,1.082076 0.0624,1.623117 l 6.38841,5.660092 c 0.60347,0.5618433 0.95723,0.5826565 1.60231,-0.1040392 l 1.16531,1.5606884 -3.6416,4.07859563 -1.70635,-0.97803191 c 0.64508,-0.70750882 0.58265,-1.04045542 -0.0416,-1.60230412 l -6.38841,-5.6808996 c -0.60346,-0.5410409 -0.97803,-0.5826566 -1.6023,0.1248682 l -1.18613,-1.5606831"
       id="path99"
       inkscape:connector-curvature="0" />
    <path
       style="fill:#214f99;fill-opacity:1;fill-rule:nonzero;stroke:none;stroke-width:5.3271451"
       d="m 197.40367,-1.6605354 c 2.24739,-1.8103983 4.45317,-2.3930549 5.49362,-2.580336 l 1.33179,2.9757061 -1.04046,0.8115586 c -1.43583,-0.9572187 -3.12138,-0.39538072 -4.3075,0.54104086 -0.89479,0.72831664 -1.49826,1.91444284 -0.72832,2.87166154 0.66589,0.8323665 1.5815,0.7075142 3.72484,-0.4578148 2.16416,-1.206934 4.78611,-1.85201937 6.63813,0.4578148 1.8104,2.2681973 0.81156,5.160672 -1.76878,7.2207803 -1.95606,1.560688 -3.93294,2.268197 -4.91096,2.476292 l -1.24855,-2.8300464 1.01965,-0.8115586 c 1.35259,0.7075088 2.78842,0.1664733 3.72484,-0.5826565 1.01964,-0.8115586 1.3734,-1.852014 0.74913,-2.621957 -0.58266,-0.7283167 -1.49826,-0.5410355 -3.07976,0.3329466 -2.89247,1.5814962 -5.32714,2.2473894 -7.36645,-0.2913416 -1.99767,-2.4554837 -0.74913,-5.49361856 1.76878,-7.5121059"
       id="path101"
       inkscape:connector-curvature="0" />
    <path
       style="fill:#214f99;fill-opacity:1;fill-rule:nonzero;stroke:none;stroke-width:5.3271451"
       d="m 118.70343,30.46881 -7.28321,-2.080917 0.14564,-1.976871 0.93641,0.270512 c 0.95723,0.270513 1.26937,0.06243 1.49826,-0.707509 l 2.12254,-7.428874 c -0.54104,0.291341 -1.39422,0.395381 -2.89248,0.145644 l 0.62428,-2.143345 c 1.5815,0.06243 2.53872,-0.104039 4.18264,-1.581496 l 2.9549,0.832366 -3.20461,11.25776 c -0.2289,0.769938 -0.0416,1.123692 0.8948,1.39421 l 0.93641,0.270513 -0.9156,1.747969"
       id="path103"
       inkscape:connector-curvature="0" />
    <path
       style="fill:#214f99;fill-opacity:1;fill-rule:nonzero;stroke:none;stroke-width:5.3271451"
       d="m 133.81088,20.0018 c -1.33179,-0.124868 -2.2682,0.332947 -2.35144,1.24855 -0.0833,0.936411 0.72832,1.768777 1.99768,2.476291 1.33179,-0.47859 2.2682,-1.123697 2.35143,-2.060108 0.0833,-0.915603 -0.74913,-1.560688 -1.99767,-1.664733 z m -0.58266,6.055467 c -1.62311,0.603465 -2.80923,1.415023 -2.93409,2.621952 -0.10404,1.061269 0.93641,1.935251 2.4971,2.080916 1.51907,0.145644 2.74681,-0.49942 2.85085,-1.560688 0.10404,-1.227737 -0.93641,-2.24739 -2.41386,-3.14218 z m -0.64508,6.908642 c -4.01617,-0.374552 -6.43004,-2.226582 -6.18033,-4.661252 0.18731,-2.10173 1.97688,-3.121377 3.93294,-3.745649 -1.5815,-0.915603 -2.91328,-2.039301 -2.76762,-3.724841 0.20808,-2.143345 2.70519,-3.391895 6.45084,-3.038141 3.55837,0.332947 5.86818,2.039301 5.6809,4.182646 -0.16647,1.68554 -1.64393,2.538715 -3.37108,3.142179 1.78958,0.978032 3.35027,2.309818 3.14218,4.411542 -0.22891,2.434676 -2.99652,3.808078 -6.88783,3.433516"
       id="path105"
       inkscape:connector-curvature="0" />
    <path
       style="fill:#214f99;fill-opacity:1;fill-rule:nonzero;stroke:none;stroke-width:5.3271451"
       d="m 151.04086,20.126652 c -1.74797,0.187303 -2.66357,1.435837 -2.4971,3.225422 0.16647,1.68554 1.16531,2.705193 2.85086,2.53872 1.53988,-0.145665 2.85085,-1.227742 2.68438,-3.162992 -0.12486,-1.269363 -0.97803,-2.788431 -3.03814,-2.60115 z m -0.0624,12.880873 c -0.95723,0.104039 -2.80924,-0.04155 -3.45433,-0.457815 l -0.1873,-2.080916 c 0.70751,0.208078 1.72716,0.291341 2.66357,0.208078 2.58034,-0.249683 4.09941,-1.560689 4.41155,-4.141025 -0.47859,0.790751 -1.83121,1.539881 -3.26704,1.664733 -3.57918,0.353776 -5.80576,-1.539875 -6.07628,-4.515586 -0.31211,-3.038135 1.89363,-5.451998 5.74333,-5.805758 4.47397,-0.436985 6.80459,2.24739 7.17916,6.097089 0.43699,4.598823 -1.58149,8.510945 -7.01268,9.031173"
       id="path107"
       inkscape:connector-curvature="0" />
    <path
       style="fill:#214f99;fill-opacity:1;fill-rule:nonzero;stroke:none;stroke-width:5.3271451"
       d="m 173.93094,28.408701 -7.32483,1.935251 -0.89479,-1.789585 0.95722,-0.228908 c 0.95723,-0.270512 1.10289,-0.603464 0.8948,-1.394215 l -1.95607,-7.449677 c -0.31211,0.49942 -0.99884,1.040455 -2.41386,1.602304 l -0.56184,-2.164153 c 1.39421,-0.769937 2.14334,-1.394215 2.78842,-3.516747 l 2.97571,-0.769942 2.99652,11.299375 c 0.20808,0.790751 0.54104,0.978032 1.47745,0.74913 l 0.93642,-0.270512 0.12486,1.997679"
       id="path109"
       inkscape:connector-curvature="0" />
  </g>
</svg>
